<svg xmlns="http://www.w3.org/2000/svg" viewBox="0 0 24 24"><defs><style>.cls-1{fill:none;}.cls-2{fill:#42caec;}.cls-3{fill:#423535;}</style></defs><title></title><g id="Layer_2" data-name="Layer 2"><g id="Layer_3" data-name="Layer 3"><rect width="24" height="24" class="cls-1"></rect><path d="M1,12C1,4,4,1,12,1S23,4,23,12,20,23,12,23,1,20,1,12" class="cls-2"></path><rect y="5.4" x="15.24" width="1.2" transform="translate(7.56 24.12) rotate(-90)" rx="0.6" height="5.76" class="cls-3"></rect><rect y="5.4" x="7.56" width="1.2" transform="translate(-0.12 16.44) rotate(-90)" rx="0.6" height="5.76" class="cls-3"></rect><rect y="5.4" x="7.56" width="1.2" rx="0.6" height="5.76" class="cls-3"></rect><rect y="12.84" x="15.24" width="1.2" transform="translate(0.12 31.56) rotate(-90)" rx="0.6" height="5.76" class="cls-3"></rect><rect y="12.84" x="15.24" width="1.2" rx="0.6" height="1.2" class="cls-3"></rect><rect y="17.4" x="15.24" width="1.2" rx="0.6" height="1.2" class="cls-3"></rect><rect y="12.58" x="7.56" width="1.21" transform="translate(2.81 32.61) rotate(-135)" rx="0.6" height="6.29" class="cls-3"></rect><rect y="12.58" x="7.56" width="1.21" transform="translate(-8.73 10.37) rotate(-45)" rx="0.6" height="6.29" class="cls-3"></rect></g></g></svg>