<?xml version="1.0" ?><svg viewBox="0 0 24 24" xmlns="http://www.w3.org/2000/svg"><defs><style>.cls-1{fill:none;}.cls-2{fill:#009c00;}.cls-3{fill:#fff;}</style></defs><title/><g data-name="Layer 2" id="Layer_2"><g data-name="Layer 3" id="Layer_3"><rect class="cls-1" height="24" width="24"/><path class="cls-2" d="M1,12C1,4,4,1,12,1S23,4,23,12,20,23,12,23,1,20,1,12"/><rect class="cls-3" height="5.76" rx="0.6" transform="translate(7.56 24.12) rotate(-90)" width="1.2" x="15.24" y="5.4"/><rect class="cls-3" height="5.76" rx="0.6" transform="translate(-0.12 16.44) rotate(-90)" width="1.2" x="7.56" y="5.4"/><rect class="cls-3" height="5.76" rx="0.6" width="1.2" x="7.56" y="5.4"/><rect class="cls-3" height="5.76" rx="0.6" transform="translate(0.12 31.56) rotate(-90)" width="1.2" x="15.24" y="12.84"/><rect class="cls-3" height="1.2" rx="0.6" width="1.2" x="15.24" y="12.84"/><rect class="cls-3" height="1.2" rx="0.6" width="1.2" x="15.24" y="17.4"/><rect class="cls-3" height="6.29" rx="0.6" transform="translate(2.81 32.61) rotate(-135)" width="1.21" x="7.56" y="12.58"/><rect class="cls-3" height="6.29" rx="0.6" transform="translate(-8.73 10.37) rotate(-45)" width="1.21" x="7.56" y="12.58"/></g></g></svg>